<mxfile host="app.diagrams.net" agent="Mozilla/5.0 (Windows NT 10.0; Win64; x64) AppleWebKit/537.36 (KHTML, like Gecko) Chrome/136.0.0.0 Safari/537.36" version="27.0.6">
  <diagram name="Trang-1" id="p-AaW_fg5K8r-M7C0UEP">
    <mxGraphModel dx="385" dy="465" grid="1" gridSize="10" guides="1" tooltips="1" connect="1" arrows="1" fold="1" page="1" pageScale="1" pageWidth="827" pageHeight="1169" math="0" shadow="0">
      <root>
        <mxCell id="0" />
        <mxCell id="1" parent="0" />
        <mxCell id="jGcpJ4L4iB1kGS2EZdsp-16" style="edgeStyle=orthogonalEdgeStyle;rounded=0;orthogonalLoop=1;jettySize=auto;html=1;endArrow=none;startFill=0;exitX=0.5;exitY=1;exitDx=0;exitDy=0;" parent="1" source="SokqTSgsTaMbX1U8fRO0-18" target="jGcpJ4L4iB1kGS2EZdsp-7" edge="1">
          <mxGeometry relative="1" as="geometry">
            <Array as="points">
              <mxPoint x="600" y="639" />
            </Array>
          </mxGeometry>
        </mxCell>
        <mxCell id="SokqTSgsTaMbX1U8fRO0-20" value="&lt;font style=&quot;font-size: 12px;&quot;&gt;*&lt;/font&gt;" style="edgeLabel;html=1;align=center;verticalAlign=middle;resizable=0;points=[];" parent="jGcpJ4L4iB1kGS2EZdsp-16" vertex="1" connectable="0">
          <mxGeometry x="0.8214" y="1" relative="1" as="geometry">
            <mxPoint x="-10" y="10" as="offset" />
          </mxGeometry>
        </mxCell>
        <mxCell id="jGcpJ4L4iB1kGS2EZdsp-4" value="Nhà cung cấp" style="swimlane;fontStyle=1;align=left;verticalAlign=middle;childLayout=stackLayout;horizontal=1;startSize=29;horizontalStack=0;resizeParent=1;resizeParentMax=0;resizeLast=0;collapsible=0;marginBottom=0;html=1;whiteSpace=wrap;" parent="1" vertex="1">
          <mxGeometry x="210" y="160" width="210" height="110" as="geometry" />
        </mxCell>
        <mxCell id="jGcpJ4L4iB1kGS2EZdsp-5" value="id = 1" style="text;html=1;strokeColor=none;fillColor=none;align=left;verticalAlign=middle;spacingLeft=4;spacingRight=4;overflow=hidden;rotatable=0;points=[[0,0.5],[1,0.5]];portConstraint=eastwest;whiteSpace=wrap;" parent="jGcpJ4L4iB1kGS2EZdsp-4" vertex="1">
          <mxGeometry y="29" width="210" height="25" as="geometry" />
        </mxCell>
        <mxCell id="jGcpJ4L4iB1kGS2EZdsp-6" value="name = &#39;Nhà sách Phương Nam&#39;&lt;div&gt;dia_chi = &#39;1 Trần Đại Nghĩa&#39;&lt;/div&gt;&lt;div&gt;sdt = &#39;0911232132&#39;&lt;/div&gt;" style="text;html=1;strokeColor=none;fillColor=none;align=left;verticalAlign=middle;spacingLeft=4;spacingRight=4;overflow=hidden;rotatable=0;points=[[0,0.5],[1,0.5]];portConstraint=eastwest;whiteSpace=wrap;" parent="jGcpJ4L4iB1kGS2EZdsp-4" vertex="1">
          <mxGeometry y="54" width="210" height="56" as="geometry" />
        </mxCell>
        <mxCell id="jGcpJ4L4iB1kGS2EZdsp-7" value="Danh mục" style="swimlane;fontStyle=1;align=left;verticalAlign=middle;childLayout=stackLayout;horizontal=1;startSize=29;horizontalStack=0;resizeParent=1;resizeParentMax=0;resizeLast=0;collapsible=0;marginBottom=0;html=1;whiteSpace=wrap;" parent="1" vertex="1">
          <mxGeometry x="290" y="600" width="140" height="77" as="geometry" />
        </mxCell>
        <mxCell id="jGcpJ4L4iB1kGS2EZdsp-8" value="id_danh _muc = 20" style="text;html=1;strokeColor=none;fillColor=none;align=left;verticalAlign=middle;spacingLeft=4;spacingRight=4;overflow=hidden;rotatable=0;points=[[0,0.5],[1,0.5]];portConstraint=eastwest;whiteSpace=wrap;" parent="jGcpJ4L4iB1kGS2EZdsp-7" vertex="1">
          <mxGeometry y="29" width="140" height="23" as="geometry" />
        </mxCell>
        <mxCell id="jGcpJ4L4iB1kGS2EZdsp-9" value="tên = &#39;viễn tưởng&#39;" style="text;html=1;strokeColor=none;fillColor=none;align=left;verticalAlign=middle;spacingLeft=4;spacingRight=4;overflow=hidden;rotatable=0;points=[[0,0.5],[1,0.5]];portConstraint=eastwest;whiteSpace=wrap;" parent="jGcpJ4L4iB1kGS2EZdsp-7" vertex="1">
          <mxGeometry y="52" width="140" height="25" as="geometry" />
        </mxCell>
        <mxCell id="SokqTSgsTaMbX1U8fRO0-21" style="endArrow=none;edgeStyle=orthogonalEdgeStyle;rounded=0;orthogonalLoop=1;jettySize=auto;html=1;entryX=0;entryY=0.5;entryDx=0;entryDy=0;" parent="1" source="SokqTSgsTaMbX1U8fRO0-23" target="SokqTSgsTaMbX1U8fRO0-1" edge="1">
          <mxGeometry relative="1" as="geometry" />
        </mxCell>
        <mxCell id="jGcpJ4L4iB1kGS2EZdsp-1" value="Sách" style="swimlane;fontStyle=1;align=left;verticalAlign=middle;childLayout=stackLayout;horizontal=1;startSize=20;horizontalStack=0;resizeParent=1;resizeParentMax=0;resizeLast=0;collapsible=0;marginBottom=0;html=1;whiteSpace=wrap;" parent="1" vertex="1">
          <mxGeometry x="490" y="370" width="220" height="100" as="geometry" />
        </mxCell>
        <mxCell id="jGcpJ4L4iB1kGS2EZdsp-2" value="id_sach = 9&lt;div&gt;name = &#39;Chiến thần sa mạc&lt;/div&gt;&lt;div&gt;tac_gia = &#39;Vũ Song Long&#39;&lt;/div&gt;&lt;div&gt;so_luuong = &#39;100&#39;&lt;/div&gt;" style="text;html=1;strokeColor=none;fillColor=none;align=left;verticalAlign=middle;spacingLeft=4;spacingRight=4;overflow=hidden;rotatable=0;points=[[0,0.5],[1,0.5]];portConstraint=eastwest;whiteSpace=wrap;" parent="jGcpJ4L4iB1kGS2EZdsp-1" vertex="1">
          <mxGeometry y="20" width="220" height="80" as="geometry" />
        </mxCell>
        <mxCell id="SokqTSgsTaMbX1U8fRO0-1" value="Quản lý" style="swimlane;fontStyle=1;align=left;verticalAlign=middle;childLayout=stackLayout;horizontal=1;startSize=29;horizontalStack=0;resizeParent=1;resizeParentMax=0;resizeLast=0;collapsible=0;marginBottom=0;html=1;whiteSpace=wrap;" parent="1" vertex="1">
          <mxGeometry x="850" y="403" width="180" height="54" as="geometry" />
        </mxCell>
        <mxCell id="SokqTSgsTaMbX1U8fRO0-3" value="name=&#39; Phan Công Trưởng&quot;" style="text;html=1;strokeColor=none;fillColor=none;align=left;verticalAlign=middle;spacingLeft=4;spacingRight=4;overflow=hidden;rotatable=0;points=[[0,0.5],[1,0.5]];portConstraint=eastwest;whiteSpace=wrap;" parent="SokqTSgsTaMbX1U8fRO0-1" vertex="1">
          <mxGeometry y="29" width="180" height="25" as="geometry" />
        </mxCell>
        <mxCell id="SokqTSgsTaMbX1U8fRO0-4" value="" style="endArrow=none;html=1;edgeStyle=orthogonalEdgeStyle;rounded=0;entryX=1;entryY=0.5;entryDx=0;entryDy=0;" parent="1" source="SokqTSgsTaMbX1U8fRO0-8" target="jGcpJ4L4iB1kGS2EZdsp-6" edge="1">
          <mxGeometry relative="1" as="geometry">
            <mxPoint x="420" y="320" as="sourcePoint" />
            <mxPoint x="370" y="110" as="targetPoint" />
          </mxGeometry>
        </mxCell>
        <mxCell id="SokqTSgsTaMbX1U8fRO0-9" value="" style="endArrow=none;html=1;edgeStyle=orthogonalEdgeStyle;rounded=0;exitX=0;exitY=0.75;exitDx=0;exitDy=0;entryX=0.5;entryY=1;entryDx=0;entryDy=0;" parent="1" source="jGcpJ4L4iB1kGS2EZdsp-1" target="SokqTSgsTaMbX1U8fRO0-8" edge="1">
          <mxGeometry relative="1" as="geometry">
            <mxPoint x="490" y="427.5" as="sourcePoint" />
            <mxPoint x="370" y="120" as="targetPoint" />
          </mxGeometry>
        </mxCell>
        <mxCell id="SokqTSgsTaMbX1U8fRO0-10" value="&lt;b&gt;&lt;font style=&quot;font-size: 12px;&quot;&gt;*&lt;/font&gt;&lt;/b&gt;" style="edgeLabel;resizable=0;html=1;align=left;verticalAlign=bottom;" parent="SokqTSgsTaMbX1U8fRO0-9" connectable="0" vertex="1">
          <mxGeometry x="-1" relative="1" as="geometry">
            <mxPoint x="-20" as="offset" />
          </mxGeometry>
        </mxCell>
        <mxCell id="SokqTSgsTaMbX1U8fRO0-8" value="được cung cấp bởi" style="text;html=1;align=center;verticalAlign=middle;whiteSpace=wrap;rounded=0;" parent="1" vertex="1">
          <mxGeometry x="400" y="340" width="60" height="30" as="geometry" />
        </mxCell>
        <mxCell id="SokqTSgsTaMbX1U8fRO0-16" value="&lt;b&gt;*&lt;/b&gt;" style="edgeLabel;resizable=0;html=1;align=left;verticalAlign=bottom;" parent="1" connectable="0" vertex="1">
          <mxGeometry x="429" y="157" as="geometry">
            <mxPoint x="-4" y="85" as="offset" />
          </mxGeometry>
        </mxCell>
        <mxCell id="SokqTSgsTaMbX1U8fRO0-17" value="" style="edgeStyle=orthogonalEdgeStyle;rounded=0;orthogonalLoop=1;jettySize=auto;html=1;endArrow=none;startFill=0;" parent="1" source="jGcpJ4L4iB1kGS2EZdsp-1" target="SokqTSgsTaMbX1U8fRO0-18" edge="1">
          <mxGeometry relative="1" as="geometry">
            <mxPoint x="590" y="500" as="sourcePoint" />
            <mxPoint x="430" y="639" as="targetPoint" />
            <Array as="points" />
          </mxGeometry>
        </mxCell>
        <mxCell id="SokqTSgsTaMbX1U8fRO0-18" value="thuộc" style="text;html=1;align=center;verticalAlign=middle;whiteSpace=wrap;rounded=0;" parent="1" vertex="1">
          <mxGeometry x="570" y="565" width="60" height="30" as="geometry" />
        </mxCell>
        <mxCell id="SokqTSgsTaMbX1U8fRO0-19" value="&lt;font style=&quot;font-size: 12px;&quot;&gt;*&lt;/font&gt;" style="edgeLabel;resizable=0;html=1;align=left;verticalAlign=bottom;" parent="1" connectable="0" vertex="1">
          <mxGeometry x="590" y="519" as="geometry">
            <mxPoint x="-4" y="-22" as="offset" />
          </mxGeometry>
        </mxCell>
        <mxCell id="SokqTSgsTaMbX1U8fRO0-22" value="" style="endArrow=none;rounded=0;orthogonalLoop=1;jettySize=auto;html=1;entryX=0;entryY=0.5;entryDx=0;entryDy=0;edgeStyle=elbowEdgeStyle;exitX=1;exitY=0.5;exitDx=0;exitDy=0;" parent="1" source="jGcpJ4L4iB1kGS2EZdsp-2" target="SokqTSgsTaMbX1U8fRO0-23" edge="1">
          <mxGeometry relative="1" as="geometry">
            <mxPoint x="710" y="430" as="sourcePoint" />
            <mxPoint x="850" y="592" as="targetPoint" />
          </mxGeometry>
        </mxCell>
        <mxCell id="SokqTSgsTaMbX1U8fRO0-23" value="thêm,cập nhật bởi" style="text;html=1;align=center;verticalAlign=middle;whiteSpace=wrap;rounded=0;" parent="1" vertex="1">
          <mxGeometry x="750" y="415" width="60" height="30" as="geometry" />
        </mxCell>
        <mxCell id="eEHWKijJjRK9mIHX2iYE-1" value="&lt;font style=&quot;font-size: 12px;&quot;&gt;*&lt;/font&gt;" style="edgeLabel;resizable=0;html=1;align=left;verticalAlign=bottom;" connectable="0" vertex="1" parent="1">
          <mxGeometry x="718" y="471" as="geometry">
            <mxPoint x="-4" y="-22" as="offset" />
          </mxGeometry>
        </mxCell>
        <mxCell id="eEHWKijJjRK9mIHX2iYE-2" value="&lt;font style=&quot;font-size: 12px;&quot;&gt;*&lt;/font&gt;" style="edgeLabel;resizable=0;html=1;align=left;verticalAlign=bottom;" connectable="0" vertex="1" parent="1">
          <mxGeometry x="839" y="471" as="geometry">
            <mxPoint x="-4" y="-22" as="offset" />
          </mxGeometry>
        </mxCell>
      </root>
    </mxGraphModel>
  </diagram>
</mxfile>
